<svg width="378" height="172" viewBox="0 0 378 172" fill="none" xmlns="http://www.w3.org/2000/svg">
<g clip-path="url(#clip0_202_15)">
<path fill-rule="evenodd" clip-rule="evenodd" d="M208.594 171.245C252.26 171.245 288.21 137.863 292.82 94.975C297.074 134.546 328.007 166.024 367.064 170.657C372.548 171.307 377.046 166.804 377.046 161.282L377.046 81.3357L377.046 9.98973C377.046 4.46691 372.549 -0.0625036 367.064 0.587984C328.007 5.2204 297.074 36.6986 292.82 76.2699C288.21 33.3816 252.26 0 208.594 0C165.937 0 130.643 31.858 124.737 73.3147C122.817 44.3087 107.099 17.163 81.1983 1.69733C76.4564 -1.13407 70.4914 1.11806 68.2018 6.14402C60.3163 23.454 45.8602 55.1869 31.7956 86.0607C19.7518 112.498 7.99504 138.306 0.896715 153.888C-1.39283 158.914 0.832874 164.87 6.08114 166.59C49.2187 180.724 97.1786 160.104 116.634 117.396C120.441 109.041 122.893 100.416 124.084 91.7746C127.204 136.191 163.849 171.245 208.594 171.245Z" fill="url(#paint0_linear_202_15)"/>
<mask id="mask0_202_15" style="mask-type:alpha" maskUnits="userSpaceOnUse" x="0" y="0" width="378" height="172">
<path fill-rule="evenodd" clip-rule="evenodd" d="M208.594 171.245C252.26 171.245 288.21 137.863 292.82 94.975C297.074 134.546 328.007 166.024 367.064 170.657C372.548 171.307 377.046 166.804 377.046 161.282L377.046 81.3357L377.046 9.98973C377.046 4.46691 372.549 -0.0625036 367.064 0.587984C328.007 5.2204 297.074 36.6986 292.82 76.2699C288.21 33.3816 252.26 0 208.594 0C165.937 0 130.643 31.858 124.737 73.3147C122.817 44.3087 107.099 17.163 81.1983 1.69733C76.4564 -1.13407 70.4914 1.11806 68.2018 6.14402C60.3163 23.454 45.8602 55.1869 31.7956 86.0607C19.7518 112.498 7.99504 138.306 0.896715 153.888C-1.39283 158.914 0.832874 164.87 6.08114 166.59C49.2187 180.724 97.1786 160.104 116.634 117.396C120.441 109.041 122.893 100.416 124.084 91.7746C127.204 136.191 163.849 171.245 208.594 171.245Z" fill="#F5E6D3"/>
</mask>
<g mask="url(#mask0_202_15)">
<circle cx="373.448" cy="163.255" r="268.819" fill="url(#paint1_radial_202_15)" fill-opacity="0.4"/>
</g>
</g>
<defs>
<linearGradient id="paint0_linear_202_15" x1="257.139" y1="100.987" x2="55.19" y2="-15.4893" gradientUnits="userSpaceOnUse">
<stop stop-color="#FFF8EE"/>
<stop offset="1" stop-color="#F5E6D3"/>
</linearGradient>
<radialGradient id="paint1_radial_202_15" cx="0" cy="0" r="1" gradientUnits="userSpaceOnUse" gradientTransform="translate(373.448 163.255) rotate(-132.992) scale(177.293)">
<stop stop-color="#F72424"/>
<stop offset="0.255" stop-color="#F373E2"/>
<stop offset="0.665" stop-color="#46A7F8" stop-opacity="0.3"/>
<stop offset="1" stop-color="#ECAE12" stop-opacity="0"/>
</radialGradient>
<clipPath id="clip0_202_15">
<rect width="377.046" height="171.245" fill="white"/>
</clipPath>
</defs>
</svg>
