<svg width="378" height="172" viewBox="0 0 378 172" fill="none" xmlns="http://www.w3.org/2000/svg">
<path fill-rule="evenodd" clip-rule="evenodd" d="M209.471 171.572C253.136 171.572 289.087 138.19 293.697 95.3021C297.951 134.873 328.884 166.351 367.941 170.984C373.425 171.634 377.923 167.132 377.923 161.609L377.923 10.3169C377.923 4.79407 373.426 0.264648 367.941 0.915131C328.884 5.54755 297.951 37.0258 293.697 76.597C289.087 33.7088 253.136 0.327148 209.471 0.327148C166.814 0.327148 131.52 32.1851 125.614 73.6418C123.694 44.6358 107.976 17.4901 82.0753 2.02448C77.3334 -0.806915 71.3684 1.44522 69.0788 6.47116L1.77367 154.215C-0.515878 159.241 1.70983 165.197 6.95812 166.917C50.0957 181.051 98.0557 160.431 117.511 117.723C121.318 109.368 123.77 100.744 124.961 92.1018C128.081 136.518 164.726 171.572 209.471 171.572Z" fill="#F5E6D3"/>
</svg>
